<?xml version="1.0" encoding="UTF-8" standalone="no"?>
<svg xmlns="http://www.w3.org/2000/svg" version="1.1" width="469" height="621" viewBox="0 0 469 621">
  <g fill="#c49a47" stroke="none">
    <path d="M 59 260 L 46 269 L 27 291 L 16 314 L 11 339 L 13 373 L 21 405 L 58 487 L 99 556 L 218 555 L 259 481 L 243 448 L 237 425 L 235 392 L 239 369 L 247 350 L 265 328 L 276 326 L 294 340 L 299 339 L 299 318 L 289 293 L 265 266 L 229 250 L 98 248 Z" />
    <path d="M 411 217 L 393 226 L 371 247 L 355 276 L 347 314 L 350 390 L 338 424 L 319 457 L 308 454 L 312 416 L 299 374 L 272 342 L 262 357 L 253 390 L 255 425 L 288 500 L 278 519 L 248 549 L 251 554 L 275 547 L 304 563 L 335 566 L 365 558 L 398 537 L 393 530 L 363 518 L 324 516 L 299 523 L 292 514 L 330 477 L 388 470 L 414 460 L 436 441 L 454 411 L 458 391 L 421 392 L 383 410 L 352 441 L 341 438 L 362 387 L 403 345 L 418 314 L 423 256 Z" />
    <path d="M 121 39 L 117 43 L 117 124 L 201 125 L 201 41 L 197 38 Z" />
    <path d="M 64 591 L 64 600 L 68 604 L 245 604 L 250 600 L 247 588 L 228 571 L 83 571 Z" />
    <path d="M 114 185 L 114 215 L 106 223 L 106 229 L 109 231 L 212 229 L 204 221 L 204 185 L 201 183 Z" />
    <path d="M 97 152 L 99 162 L 106 168 L 212 168 L 221 158 L 219 147 L 212 141 L 106 141 Z" />
    <path d="M 327 27 L 318 33 L 317 39 L 321 46 L 330 48 L 336 44 L 338 36 L 333 29 Z" />
    <path d="M 278 55 L 272 60 L 271 68 L 276 74 L 284 75 L 289 72 L 291 62 L 288 57 Z" />
    <path d="M 313 99 L 308 103 L 307 110 L 311 115 L 318 116 L 323 112 L 324 105 L 320 100 Z" />
    <path d="M 275 107 L 268 111 L 267 119 L 276 125 L 283 120 L 284 114 Z" />
    <path d="M 226 78 L 230 84 L 241 84 L 245 81 L 242 75 L 230 75 Z" />
  </g>
</svg>